<?xml version="1.0" standalone="no"?>
<!DOCTYPE svg PUBLIC "-//W3C//DTD SVG 20010904//EN"
 "http://www.w3.org/TR/2001/REC-SVG-20010904/DTD/svg10.dtd">
<svg version="1.0" xmlns="http://www.w3.org/2000/svg"
 width="344.000000pt" height="344.000000pt" viewBox="0 0 344.000000 344.000000"
 preserveAspectRatio="xMidYMid meet">
<metadata>
Created by potrace 1.14, written by Peter Selinger 2001-2017
</metadata>
<g transform="translate(0.000000,344.000000) scale(0.100000,-0.100000)"
fill="#000000" stroke="none">
<path d="M215 3244 l1 -187 29 -3 c29 -3 100 -12 156 -20 15 -2 69 -13 120
-24 52 -12 103 -23 115 -26 28 -5 196 -58 264 -82 135 -48 387 -171 465 -226
33 -24 63 -42 85 -52 8 -4 17 -10 20 -14 3 -3 27 -22 55 -41 27 -18 56 -40 63
-46 7 -7 16 -13 20 -13 4 0 23 -15 43 -33 20 -17 65 -57 100 -87 110 -95 252
-242 340 -351 19 -23 42 -50 52 -61 9 -10 14 -18 11 -18 -3 0 1 -6 8 -13 7 -8
22 -26 33 -41 11 -16 26 -34 33 -42 7 -8 10 -14 5 -14 -4 0 -3 -4 3 -8 11 -6
115 -161 140 -207 6 -11 24 -42 39 -70 16 -27 33 -59 39 -70 6 -11 15 -23 19
-26 5 -3 9 -10 9 -15 1 -5 22 -54 48 -109 67 -141 80 -171 80 -184 0 -6 5 -11
11 -11 5 0 8 -4 5 -8 -3 -5 1 -19 8 -33 7 -13 14 -28 15 -34 2 -5 7 -20 12
-33 5 -13 9 -29 9 -36 0 -6 4 -16 9 -22 6 -5 12 -22 15 -37 3 -16 10 -34 15
-41 6 -7 8 -16 4 -19 -3 -4 -1 -12 4 -19 6 -7 13 -24 16 -38 3 -14 17 -70 32
-125 15 -55 28 -107 30 -115 2 -8 6 -26 9 -40 8 -34 16 -78 22 -120 2 -19 7
-46 10 -60 9 -46 17 -104 18 -142 0 -21 3 -38 6 -38 3 0 6 -15 7 -32 0 -18 2
-59 4 -90 l4 -58 55 -1 c215 -2 315 1 313 11 -2 5 0 10 5 10 8 0 7 852 -1 874
-3 8 -3 17 0 20 3 3 6 567 5 1253 l0 1248 -188 0 -189 0 0 -80 c0 -44 4 -83
10 -87 7 -5 7 -8 0 -8 -12 0 -13 -99 -1 -118 4 -6 3 -12 -1 -12 -11 0 -10 -91
0 -107 5 -7 4 -13 0 -13 -11 0 -10 -91 0 -107 5 -7 4 -13 0 -13 -12 0 -10
-134 2 -142 7 -5 6 -8 0 -8 -12 0 -13 -99 -2 -117 4 -6 4 -14 -1 -17 -10 -6
-9 -87 2 -104 4 -6 3 -12 -1 -12 -11 0 -10 -91 0 -107 5 -7 4 -13 0 -13 -11 0
-10 -91 0 -107 5 -7 4 -13 0 -13 -12 0 -10 -134 2 -142 7 -5 6 -8 0 -8 -12 0
-13 -99 -2 -117 4 -6 4 -14 -1 -17 -10 -6 -9 -87 2 -104 4 -6 3 -12 -1 -12
-13 0 -10 -103 2 -112 6 -5 7 -8 0 -8 -6 0 -10 -39 -9 -98 0 -53 -2 -101 -4
-105 -2 -4 -27 38 -56 95 -62 120 -85 162 -132 235 -19 29 -34 58 -34 63 0 6
-4 10 -10 10 -5 0 -10 7 -10 15 0 8 -4 15 -9 15 -5 0 -14 14 -21 30 -7 17 -16
30 -20 30 -3 0 -13 12 -21 28 -8 15 -22 36 -31 46 -10 11 -18 26 -18 33 0 7
-4 13 -8 13 -10 0 -9 30 1 47 4 6 3 14 -3 18 -6 4 -7 12 0 24 6 12 5 22 -2 29
-9 9 -9 12 0 12 10 0 10 5 2 20 -8 14 -8 20 0 20 8 0 8 6 0 20 -8 14 -8 20 0
20 8 0 8 6 0 20 -8 14 -8 20 0 20 8 0 8 6 0 20 -8 14 -8 20 0 20 8 0 8 6 0 20
-8 14 -8 20 0 20 8 0 8 6 0 20 -8 14 -8 20 0 20 8 0 8 6 0 20 -8 15 -8 20 1
20 9 0 9 3 0 14 -8 10 -9 16 -1 21 7 4 7 12 0 26 -8 14 -7 19 1 19 9 0 9 3 0
14 -8 10 -9 16 -1 21 7 4 7 12 0 26 -8 14 -7 19 1 19 9 0 9 3 0 14 -8 10 -9
16 -1 21 7 4 7 12 0 26 -8 14 -7 19 1 19 9 0 9 3 0 14 -8 10 -9 16 -1 21 7 4
7 12 0 26 -8 13 -7 19 0 19 8 0 8 6 0 20 -8 14 -8 20 0 20 8 0 8 6 0 20 -8 14
-8 20 0 20 8 0 8 6 0 20 -8 14 -8 20 0 20 7 0 8 6 0 19 -7 14 -7 22 0 26 8 5
7 11 -1 21 -9 11 -9 14 0 14 9 0 9 5 1 20 -8 14 -8 20 0 20 8 0 8 6 0 20 -8
14 -8 20 0 20 8 0 8 6 0 20 -8 14 -8 20 0 20 8 0 8 6 0 20 -8 14 -8 20 0 20 8
0 8 6 0 20 -8 14 -8 20 0 20 8 0 8 6 0 20 -8 14 -8 20 0 20 7 0 8 6 0 19 -7
14 -7 22 0 26 8 5 7 11 -1 21 -6 8 -7 14 -2 14 6 0 8 11 5 25 l-4 25 -187 0
-186 0 0 -430 c0 -237 -3 -430 -6 -430 -4 0 -21 14 -39 30 -18 17 -55 49 -83
73 -27 23 -55 47 -61 52 -28 26 -157 126 -214 166 -328 228 -755 415 -1102
483 -14 2 -50 10 -80 16 -30 6 -68 13 -85 15 -101 16 -174 25 -205 25 l-35 0
0 -186z"/>
<path d="M219 2672 c-6 -39 -2 -522 4 -522 5 0 5 -6 0 -12 -10 -17 -10 -388 0
-388 5 0 5 -6 0 -12 -9 -15 -11 -1705 -2 -1720 6 -10 356 -15 366 -5 3 3 5
499 5 1101 0 687 4 1096 10 1096 15 0 178 -69 253 -108 97 -50 112 -63 111
-95 -1 -15 3 -27 9 -27 6 0 7 -3 0 -8 -6 -4 -10 -95 -10 -237 0 -142 4 -233
10 -237 7 -5 7 -8 0 -8 -14 0 -14 -702 0 -712 7 -5 7 -8 0 -8 -8 0 -12 -551
-6 -745 1 -19 7 -20 183 -18 102 1 184 6 187 12 10 15 5 1696 -5 1712 -5 9 2
7 21 -5 37 -24 112 -105 192 -209 35 -45 72 -92 82 -104 10 -12 16 -25 13 -28
-3 -3 0 -5 6 -5 7 0 12 -7 12 -15 0 -9 7 -18 15 -21 8 -4 13 -10 10 -14 -3 -5
-1 -11 4 -15 5 -3 24 -31 42 -63 18 -31 37 -60 43 -64 6 -4 7 -8 2 -8 -5 0 -1
-9 9 -20 10 -11 14 -20 9 -20 -5 0 -4 -4 1 -8 13 -9 70 -124 67 -135 -1 -4 2
-7 8 -7 6 0 9 -3 8 -7 -1 -5 8 -30 20 -57 13 -28 25 -60 28 -73 4 -13 11 -23
17 -23 6 0 8 -3 4 -6 -3 -4 0 -19 9 -35 8 -16 12 -29 9 -29 -3 0 1 -13 10 -29
8 -17 17 -38 18 -48 2 -10 7 -25 10 -33 3 -8 7 -24 9 -35 2 -11 6 -22 10 -25
6 -5 14 -41 25 -107 3 -18 9 -33 15 -33 5 0 7 -4 4 -8 -3 -4 0 -28 5 -53 6
-24 12 -53 14 -64 18 -100 24 -147 29 -216 2 -25 5 -50 8 -55 3 -5 4 -17 3
-26 -2 -10 2 -18 8 -18 33 -1 278 -1 318 -1 l46 1 -4 68 c-7 97 -10 137 -13
137 -1 0 -4 20 -5 45 -2 25 -4 46 -5 48 -4 3 -6 13 -15 72 -9 59 -11 67 -15
75 -1 3 -4 14 -5 25 -1 11 -3 21 -5 23 -2 3 -7 21 -19 72 -5 22 -15 58 -21 80
-7 22 -12 48 -13 58 -1 9 -5 17 -9 17 -4 0 -7 3 -6 7 3 11 -34 126 -45 140 -5
7 -6 13 -2 13 4 0 2 7 -5 15 -6 8 -9 19 -5 25 3 5 3 10 -2 10 -4 0 -19 28 -32
63 -13 34 -40 96 -59 137 -20 41 -35 78 -34 83 1 4 -3 7 -9 7 -5 0 -8 4 -4 9
3 5 1 12 -4 15 -5 4 -19 27 -32 54 -56 117 -239 393 -324 488 -5 6 -30 35 -55
65 -107 126 -272 279 -410 380 -30 22 -62 45 -71 52 -66 50 -291 171 -429 230
-37 16 -237 85 -267 92 -158 37 -352 69 -354 57z"/>
</g>
</svg>
